<svg xmlns="http://www.w3.org/2000/svg" width="346.063" height="514.417" viewBox="0 0 346.063 514.417"><g transform="translate(-1491.869 -1596.666)"><g transform="translate(946.227 1596.656)"><g transform="translate(545.642 0.01)"><ellipse cx="160.614" cy="15.909" rx="160.614" ry="15.909" transform="translate(11.269 482.599)" fill="#ffbe55" opacity="0.08"/><path d="M605.352,486.658c-.81-.762-118.746-165.52-20.91-217.2,133.131-70.4-44.155-308.177,201.625-264.022,236.634,42.487-48.775,230.2,48.156,298.794,63.588,44.964,100.5,152.993-32.485,187.669C717.382,513.808,625.881,505.854,605.352,486.658Z" transform="translate(-545.642 -0.01)" fill="#ffbe55" opacity="0.08"/></g><g transform="translate(756.308 290.289)"><g transform="translate(19.753)"><path d="M1048.71,615.372l3.382-4.715c.905-1.762,5.049-1.477,6.383-.048.9,1,.143,3.668-.286,4.573-1.048,2.239-6.335,10.908-6.335,10.908a4.156,4.156,0,0,1-4.811-1.572C1045.471,622.707,1048,616.372,1048.71,615.372Z" transform="translate(-1038.371 -609.434)" fill="#fcd2b1"/><path d="M1048.5,695.444a141.975,141.975,0,0,0-5.525-22.768c-3.906-11.432-.1-32.056-.1-32.056s-5.478-3.191-6.335-1.477-7.145,29.627-7.145,29.627-.238,16.909,3.477,22.2C1035.112,694.11,1044.5,698.683,1048.5,695.444Z" transform="translate(-1029.393 -624.727)" fill="#2a94f4"/></g><g transform="translate(0 89.769)"><path d="M1023.44,1025.723a40.248,40.248,0,0,0-.667,6.764c.429,2.1,0,2.715,0,2.715l-8.574-.667s3.811-1.715,3.525-9.86C1017.439,1016.482,1023.44,1025.723,1023.44,1025.723Z" transform="translate(-1001.684 -914.884)" fill="#fcd2b1"/><path d="M1009.108,1046.083a14.509,14.509,0,0,1-7.431.333,37.347,37.347,0,0,1-11.336,3.049c-3.953.476-3.239,3.429,3.477,3.048a89.145,89.145,0,0,1,12.956,0c1.477.143,3.906.333,4-.667C1010.918,1050.894,1010.347,1045.75,1009.108,1046.083Z" transform="translate(-987.923 -927.861)" fill="#0b4870"/><path d="M1020.284,803.616s-5.525,49.632-5.859,56.11a78.565,78.565,0,0,0,0,12.67c.333,3.953,3.239,37.105,3.239,37.105l5.621.333s4.192-36.152,5.859-42.345c1.619-6.192,8.05-37.534,8.05-37.534L1029.81,797.9Z" transform="translate(-1001.671 -797.9)" fill="#0e538c"/><path d="M1073.983,1026.654a32.923,32.923,0,0,0,0,5.763c.572,2.048.238,2.715.238,2.715l-8.621.048s3.62-2,2.715-10.146C1067.362,1016.889,1073.983,1026.654,1073.983,1026.654Z" transform="translate(-1028.601 -915.148)" fill="#fcd2b1"/><path d="M1059.408,1046.083a14.509,14.509,0,0,1-7.43.333,37.348,37.348,0,0,1-11.336,3.049c-3.953.476-3.239,3.429,3.477,3.048a89.144,89.144,0,0,1,12.956,0c1.477.143,3.906.333,4-.667C1061.171,1050.894,1060.647,1045.75,1059.408,1046.083Z" transform="translate(-1014.264 -927.861)" fill="#0b4870"/><path d="M1050.3,803.616s4.668,49.823,4.335,56.3,5.668,49.632,5.668,49.632l5.668.1s1.477-37.915,1.477-44.3c0-6.1,2-55.539,2-55.539l-8.336-11.908Z" transform="translate(-1020.589 -797.9)" fill="#0e538c"/></g><g transform="translate(15.993 33.508)"><path d="M1031.979,737.4s25.34,1.762,26.96,7.478-.524,48.251-.524,48.251-24.911,6.954-36.915-4.62C1022.357,784.412,1026.025,743.83,1031.979,737.4Z" transform="translate(-1021.5 -709.956)" fill="#2a94f4"/><path d="M1059.981,727.177l-2.381,8.955a4.751,4.751,0,0,0,5.287,3.668c4.477-.381,4.954-3,4.954-3l-1.762-10.146C1066.126,726.653,1061.792,725.891,1059.981,727.177Z" transform="translate(-1040.405 -704.211)" fill="#fcd2b1"/><path d="M1051.529,695.583s-5.62,8.478-4.573,11.432,4.954,5.382,13.623,5.478c2.906-.715,5.287-9.812,5-11.67C1063.866,688.867,1054.483,693.249,1051.529,695.583Z" transform="translate(-1034.763 -686.62)" fill="#ffe3ca"/><path d="M1053.257,689.555c3.048,2.858,4.668,2.334,8.669,2.191,2.429-.1,3.429,1.858,2.81,3.1s-3.286,3.811-1.334,4c2,.191,1.858-2.953,3.239-1.62,1.381,1.381-1.62,5-.143,5.763s6.573-.81,5.335-4.239c-1.191-3.43,9.526-12.765-8.1-18a21.08,21.08,0,0,0-7.621-.953C1052.686,679.553,1052.828,689.174,1053.257,689.555Z" transform="translate(-1038.015 -679.782)" fill="#0b4870"/></g></g><g transform="translate(570.105 18.915)"><g transform="translate(0)"><g transform="translate(14.289)" opacity="0.2"><path d="M727.122,365.977c0-31.151,3.525-55.681,10.574-73.734q10.574-27.007,34.247-46.87,23.649-19.862,35.962-36.3a59.469,59.469,0,0,0,12.337-36.3q0-48.3-41.582-48.3c-12.813,0-23.149,4.716-31.008,14.051q-11.86,14.075-12.48,38.058H627q.643-63.946,40.3-99.645C693.732,53.18,724.216,39.7,771.991,39.7c47.536,0,90.977,12.575,117.126,34.533q39.153,32.937,39.2,93.691,0,26.578-10.574,48.3c-7.05,14.48-18.338,29.341-33.914,44.44l-36.772,34.247c-10.431,10-17.719,20.291-21.768,30.865s-6.287,23.959-6.716,40.153H727.122Zm-13.1,97.264c0-15.766,14.718-41.44,26.15-51.585a137.774,137.774,0,0,1,32.056-4.049,67.164,67.164,0,0,1,44.3,16.766q17.076,15.218,17.1,38.867,0,23.649-17.1,38.867-17.147,15.218-42.678,15.195-25.578,0-42.678-15.195Q714.023,486.89,714.023,463.241Z" transform="translate(-627 -39.7)" fill="#ffbe55"/></g><g transform="translate(0 1.667)"><path d="M697.074,367.81c0-31.151,3.525-55.681,10.574-73.734q10.574-27.007,34.247-46.87,23.649-19.862,35.962-36.3a59.469,59.469,0,0,0,12.337-36.3q0-48.3-41.582-48.3c-12.813,0-23.149,4.716-31.008,14.051q-11.86,14.075-12.48,38.058H597q.572-63.874,40.249-99.6Q676.9,43.176,748.564,43.2q71.3,0,110.505,32.961,39.153,32.937,39.2,93.691,0,26.578-10.574,48.3c-7.05,14.48-18.338,29.341-33.914,44.44l-36.772,34.247c-10.431,10-17.719,20.291-21.768,30.865s-6.287,23.959-6.716,40.153H697.074Zm-13.146,97.264q0-23.649,17.1-38.867,17.076-15.218,42.678-15.195,25.578,0,42.678,15.195,17.076,15.218,17.1,38.867,0,23.649-17.1,38.867-17.147,15.218-42.678,15.195-25.578,0-42.678-15.195Q683.952,488.723,683.928,465.074Z" transform="translate(-597 -43.2)" fill="#f8d326"/></g></g><g transform="translate(229.671 336.68)"><path d="M1097.334,878.348s-4.192,1.429-5.24,9.479c-.1.715,1.239.619,1.381-.1l2.191-4.477c.524,1.286-.333,1.429-.619,2.715l-1,3.287a1.7,1.7,0,0,0,2.048,2.143,7.351,7.351,0,0,0,3-1.334c1.143-1.238,3.953-8.526,3.049-10.336C1101.24,877.967,1099.287,876.681,1097.334,878.348Z" transform="translate(-1085.941 -815.161)" fill="#fcd2b1"/><path d="M1081.715,748.617a6,6,0,0,1,9.574.667c3.811,5.763,10.908,17.576,10.86,25.1.333,8.717-6.764,36.819-6.764,36.819s-3.287,0-4.811-1.429c.1-2.286,1.1-29.1,1.1-29.1s-9.764-14.432-11.908-21.1A11.71,11.71,0,0,1,1081.715,748.617Z" transform="translate(-1079.181 -746.541)" fill="#2a94f4"/></g><g transform="translate(35.213 288.391)"><path d="M678.059,660.422s-.238-8.1,2.62-11.479c3.715-4.43,13.1-4.858,17.243-1.858,4.62,3.334,7.812,11.193,5.478,17.528,7.049,2.763,14.766,6.24,11.813,25.007-6,37.819-53.538,21.577-42.678-11.86C674.963,670.424,678.059,660.422,678.059,660.422Z" transform="translate(-670.927 -645.161)" fill="#0b4870"/><path d="M740.2,1006.665a37.448,37.448,0,0,1,.619,6.287c-.381,1.953,0,2.525,0,2.525l7.955-.619s-3.525-1.572-3.287-9.193C745.773,998.091,740.2,1006.665,740.2,1006.665Z" transform="translate(-707.204 -832.314)" fill="#b97a59"/><path d="M739.611,1025.686a13.425,13.425,0,0,0,6.907.286,34.722,34.722,0,0,0,10.527,2.81c3.668.429,3,3.191-3.239,2.81a83.335,83.335,0,0,0-12,0c-1.381.143-3.62.286-3.715-.619C737.992,1030.116,738.468,1025.4,739.611,1025.686Z" transform="translate(-706.091 -844.429)" fill="#0b4870"/><path d="M729.066,800.587s5.144,46.107,5.43,52.109a79.036,79.036,0,0,1,0,11.765c-.286,3.668-3.048,34.438-3.048,34.438l-5.24.286s-3.906-33.58-5.43-39.3c-1.524-5.763-7.478-34.819-7.478-34.819l6.859-29.77Z" transform="translate(-693.117 -723.786)" fill="#0b4870"/><path d="M693.875,1007.595a28.255,28.255,0,0,1,0,5.335c-.524,1.905-.19,2.477-.19,2.477l8,.048s-3.382-1.858-2.524-9.431C700.02,998.5,693.875,1007.595,693.875,1007.595Z" transform="translate(-682.79 -832.577)" fill="#b97a59"/><path d="M692.912,1025.686a13.425,13.425,0,0,0,6.907.286,34.721,34.721,0,0,0,10.527,2.81c3.668.429,3,3.191-3.239,2.81a83.336,83.336,0,0,0-12,0c-1.381.143-3.62.286-3.715-.619C691.293,1030.116,691.817,1025.4,692.912,1025.686Z" transform="translate(-681.636 -844.429)" fill="#0b4870"/><path d="M705.219,800.535s-4.335,46.25-4.049,52.252-5.24,46.107-5.24,46.107l-5.239.1s-1.334-35.2-1.334-41.154c0-5.62-1.858-51.585-1.858-51.585l7.764-11.051Z" transform="translate(-679.606 -723.734)" fill="#0b4870"/><path d="M745.484,660.723h0a35.4,35.4,0,0,1-4.192-4.1,7.939,7.939,0,0,0-6.478-3.43,1.629,1.629,0,0,0-1.715,1.62.815.815,0,0,0,.333.619l4.668,2.239c.238.1.238.143.429.333l.191.381c.333.429.286.619-.286.714l-.619-.048a13.551,13.551,0,0,1-2.667-.9.576.576,0,0,0-.81.572.88.88,0,0,0,.524.81l3.62,2.286,2.953,1.048c6.573,5.24,12.146,9.1,12.813,10.717-6.859,4.906-20.244,10.86-20.244,10.86l5.525,6.24s16.814-8.907,20.767-12.146C768.633,670.583,752.248,663.772,745.484,660.723Z" transform="translate(-703.486 -649.368)" fill="#b97a59"/><path d="M709.44,724.6c-.714,1.667,4.716,24.816,5.621,30.151a1.993,1.993,0,0,1-.333-.048c-2.382-.333-16.862-2.286-28.531,2.62l-1.048-32.675-.048-1.191s0-1.238.1-3.144h0c.286-3.906,1.048-10.431,3.572-14.67,1.286-2.191,3-3.763,5.335-3.953,7.288-.715,13.051,2.429,15.814,3.287,4.573,1.429,7.288.572,7.288.572s3.62,9,1.81,10.622l-7.621,3.191C711.488,719.261,710.154,722.881,709.44,724.6Z" transform="translate(-678.349 -674.707)" fill="#ffbe55"/><path d="M717.537,658.1s4.62,10.717,1.143,15.576a9.8,9.8,0,0,1-7.192,3.763v5.287a2.439,2.439,0,0,1-1.429.524c-1.619.1-5.859-2.477-5.859-2.477V660.005Z" transform="translate(-688.352 -651.937)" fill="#b97a59"/><path d="M683.5,742.167s3.668,18.624,5.287,23.34c.857,3.763,24.864,4.858,26.388,5.144,2.906,2.572,4.525,2.477,5.478,2.477.714,0,.381.143,4.192.381a2.16,2.16,0,0,0,2.048-3.191h0c-2-1.953-1.858-1.238-4.573-1.81-2.906-.572-3.62-.9-3.144-1.429,2.906-3.239.286-3.906-2.62-.572-.191.191-.524.048-.81.048-5.573-1.334-18.719-5.049-20.529-5.1-2.1-7.907-2.667-21.958-2.667-21.958Z" transform="translate(-677.511 -694.565)" fill="#b97a59"/><path d="M680.21,729.779s-1.572-15.337,2.953-19.005,9.669,2.239,9.431,10c-.238,7.716-.1,10.527-.1,10.527S685.544,733.637,680.21,729.779Z" transform="translate(-675.65 -678.937)" fill="#ffbe55"/><path d="M715.185,655.6s-2.382,13.813-8.145,11.336c-5.239-2.239-2.62-.1-7.431,4.525-1.429,1.381-.286-14.623-.286-14.623Z" transform="translate(-685.571 -650.628)" fill="#0b4870"/></g></g></g></g></svg>